<mxfile host="app.diagrams.net" modified="2021-07-16T15:47:33.607Z" agent="5.0 (Windows NT 10.0; Win64; x64) AppleWebKit/537.36 (KHTML, like Gecko) Chrome/91.0.4472.124 Safari/537.36" etag="0bBuuYwBR23hhvRmzuoz" version="14.8.6" type="github">
  <diagram id="-WBHt_o13amw7MxkSUU0" name="Page-1">
    <mxGraphModel dx="1422" dy="2494" grid="1" gridSize="10" guides="1" tooltips="1" connect="1" arrows="1" fold="1" page="1" pageScale="1" pageWidth="1100" pageHeight="1700" math="0" shadow="0">
      <root>
        <mxCell id="0" />
        <mxCell id="1" parent="0" />
        <mxCell id="JpK3nC_1ckLvPZy793RC-19" value="" style="swimlane;startSize=0;strokeWidth=3;opacity=50;" parent="1" vertex="1">
          <mxGeometry x="320" y="-30" width="810" height="660" as="geometry">
            <mxRectangle x="320" y="-30" width="50" height="40" as="alternateBounds" />
          </mxGeometry>
        </mxCell>
        <mxCell id="JpK3nC_1ckLvPZy793RC-6" value="" style="rounded=0;whiteSpace=wrap;html=1;" parent="JpK3nC_1ckLvPZy793RC-19" vertex="1">
          <mxGeometry y="260" width="90" height="160" as="geometry" />
        </mxCell>
        <mxCell id="JpK3nC_1ckLvPZy793RC-21" value="Loadbalancer" style="text;html=1;strokeColor=none;fillColor=none;align=center;verticalAlign=middle;whiteSpace=wrap;rounded=0;opacity=50;rotation=0;" parent="JpK3nC_1ckLvPZy793RC-19" vertex="1">
          <mxGeometry x="-7.5" y="330" width="105" height="20" as="geometry" />
        </mxCell>
        <mxCell id="8OtE-Mq53KyZG_C9XSwn-7" value="POD" style="text;html=1;strokeColor=none;fillColor=none;align=center;verticalAlign=middle;whiteSpace=wrap;rounded=0;opacity=50;" vertex="1" parent="JpK3nC_1ckLvPZy793RC-19">
          <mxGeometry x="650" y="430" width="40" height="20" as="geometry" />
        </mxCell>
        <mxCell id="8OtE-Mq53KyZG_C9XSwn-9" value="" style="swimlane;startSize=0;strokeWidth=3;opacity=50;" vertex="1" parent="JpK3nC_1ckLvPZy793RC-19">
          <mxGeometry x="350" y="50" width="430" height="540" as="geometry" />
        </mxCell>
        <mxCell id="8OtE-Mq53KyZG_C9XSwn-13" value="&lt;font style=&quot;font-size: 20px&quot;&gt;&lt;b&gt;Node&lt;/b&gt;&lt;/font&gt;" style="text;html=1;align=center;verticalAlign=middle;resizable=0;points=[];autosize=1;strokeColor=none;" vertex="1" parent="8OtE-Mq53KyZG_C9XSwn-9">
          <mxGeometry x="30" y="20" width="70" height="20" as="geometry" />
        </mxCell>
        <mxCell id="JpK3nC_1ckLvPZy793RC-9" value="&lt;span style=&quot;font-size: 16px&quot;&gt;Traefik&lt;/span&gt;&lt;br style=&quot;font-size: 16px&quot;&gt;&lt;span style=&quot;font-size: 16px&quot;&gt;Ingress&lt;/span&gt;" style="shape=trapezoid;perimeter=trapezoidPerimeter;whiteSpace=wrap;html=1;fixedSize=1;direction=north;" parent="8OtE-Mq53KyZG_C9XSwn-9" vertex="1">
          <mxGeometry x="80" y="200" width="60" height="160" as="geometry" />
        </mxCell>
        <mxCell id="JpK3nC_1ckLvPZy793RC-2" value="&lt;b&gt;&lt;font style=&quot;font-size: 15px&quot;&gt;ARTA-UI&lt;/font&gt;&lt;/b&gt;" style="whiteSpace=wrap;html=1;aspect=fixed;" parent="8OtE-Mq53KyZG_C9XSwn-9" vertex="1">
          <mxGeometry x="290" y="140" width="110" height="110" as="geometry" />
        </mxCell>
        <mxCell id="JpK3nC_1ckLvPZy793RC-3" value="&lt;span&gt;Service&lt;/span&gt;&lt;br&gt;&lt;span&gt;(NodePort)&lt;/span&gt;" style="rounded=0;whiteSpace=wrap;html=1;" parent="8OtE-Mq53KyZG_C9XSwn-9" vertex="1">
          <mxGeometry x="220" y="140" width="70" height="110" as="geometry" />
        </mxCell>
        <mxCell id="JpK3nC_1ckLvPZy793RC-5" value="Service&lt;br&gt;(NodePort)" style="rounded=0;whiteSpace=wrap;html=1;" parent="8OtE-Mq53KyZG_C9XSwn-9" vertex="1">
          <mxGeometry x="220" y="310" width="70" height="110" as="geometry" />
        </mxCell>
        <mxCell id="8OtE-Mq53KyZG_C9XSwn-19" value="&lt;b&gt;&lt;font style=&quot;font-size: 15px&quot;&gt;ARTA-API&lt;/font&gt;&lt;/b&gt;" style="whiteSpace=wrap;html=1;aspect=fixed;" vertex="1" parent="8OtE-Mq53KyZG_C9XSwn-9">
          <mxGeometry x="290" y="310" width="110" height="110" as="geometry" />
        </mxCell>
        <mxCell id="8OtE-Mq53KyZG_C9XSwn-8" value="POD" style="text;html=1;strokeColor=none;fillColor=none;align=center;verticalAlign=middle;whiteSpace=wrap;rounded=0;opacity=50;" vertex="1" parent="8OtE-Mq53KyZG_C9XSwn-9">
          <mxGeometry x="290" y="140" width="40" height="20" as="geometry" />
        </mxCell>
        <mxCell id="8OtE-Mq53KyZG_C9XSwn-23" value="" style="edgeStyle=elbowEdgeStyle;elbow=horizontal;endArrow=classic;html=1;strokeWidth=3;entryX=0;entryY=0.5;entryDx=0;entryDy=0;" edge="1" parent="8OtE-Mq53KyZG_C9XSwn-9" target="JpK3nC_1ckLvPZy793RC-5">
          <mxGeometry width="50" height="50" relative="1" as="geometry">
            <mxPoint x="140" y="320" as="sourcePoint" />
            <mxPoint x="190" y="270" as="targetPoint" />
          </mxGeometry>
        </mxCell>
        <mxCell id="8OtE-Mq53KyZG_C9XSwn-12" value="&lt;font size=&quot;1&quot;&gt;&lt;b style=&quot;font-size: 20px&quot;&gt;Cluster&lt;/b&gt;&lt;/font&gt;" style="text;html=1;align=center;verticalAlign=middle;resizable=0;points=[];autosize=1;strokeColor=none;" vertex="1" parent="JpK3nC_1ckLvPZy793RC-19">
          <mxGeometry x="30" y="20" width="80" height="20" as="geometry" />
        </mxCell>
        <mxCell id="8OtE-Mq53KyZG_C9XSwn-21" value="" style="endArrow=classic;html=1;strokeWidth=3;exitX=0.929;exitY=0.1;exitDx=0;exitDy=0;exitPerimeter=0;entryX=0.5;entryY=0;entryDx=0;entryDy=0;" edge="1" parent="JpK3nC_1ckLvPZy793RC-19" source="JpK3nC_1ckLvPZy793RC-21" target="JpK3nC_1ckLvPZy793RC-9">
          <mxGeometry width="50" height="50" relative="1" as="geometry">
            <mxPoint x="270" y="380" as="sourcePoint" />
            <mxPoint x="320" y="330" as="targetPoint" />
          </mxGeometry>
        </mxCell>
        <mxCell id="JpK3nC_1ckLvPZy793RC-20" value="External traffic" style="ellipse;shape=cloud;whiteSpace=wrap;html=1;strokeWidth=3;opacity=50;" parent="1" vertex="1">
          <mxGeometry x="40" y="250" width="120" height="140" as="geometry" />
        </mxCell>
        <mxCell id="JpK3nC_1ckLvPZy793RC-22" value="" style="endArrow=classic;html=1;entryX=-0.022;entryY=0.363;entryDx=0;entryDy=0;entryPerimeter=0;" parent="1" edge="1" target="JpK3nC_1ckLvPZy793RC-6">
          <mxGeometry width="50" height="50" relative="1" as="geometry">
            <mxPoint x="150" y="290" as="sourcePoint" />
            <mxPoint x="300" y="290" as="targetPoint" />
          </mxGeometry>
        </mxCell>
        <mxCell id="JpK3nC_1ckLvPZy793RC-23" value="" style="endArrow=classic;html=1;entryX=0;entryY=0.75;entryDx=0;entryDy=0;exitX=0.96;exitY=0.7;exitDx=0;exitDy=0;exitPerimeter=0;" parent="1" target="JpK3nC_1ckLvPZy793RC-6" edge="1" source="JpK3nC_1ckLvPZy793RC-20">
          <mxGeometry width="50" height="50" relative="1" as="geometry">
            <mxPoint x="150" y="330" as="sourcePoint" />
            <mxPoint x="200" y="280" as="targetPoint" />
            <Array as="points">
              <mxPoint x="220" y="350" />
            </Array>
          </mxGeometry>
        </mxCell>
        <mxCell id="8OtE-Mq53KyZG_C9XSwn-20" value="POD" style="text;html=1;strokeColor=none;fillColor=none;align=center;verticalAlign=middle;whiteSpace=wrap;rounded=0;opacity=50;" vertex="1" parent="1">
          <mxGeometry x="960" y="330" width="40" height="20" as="geometry" />
        </mxCell>
        <mxCell id="8OtE-Mq53KyZG_C9XSwn-22" value="" style="edgeStyle=elbowEdgeStyle;elbow=horizontal;endArrow=classic;html=1;strokeWidth=3;entryX=0;entryY=0.5;entryDx=0;entryDy=0;" edge="1" parent="1" target="JpK3nC_1ckLvPZy793RC-3">
          <mxGeometry width="50" height="50" relative="1" as="geometry">
            <mxPoint x="810" y="270" as="sourcePoint" />
            <mxPoint x="860" y="220" as="targetPoint" />
          </mxGeometry>
        </mxCell>
      </root>
    </mxGraphModel>
  </diagram>
</mxfile>
